<svg width="64" height="64" viewBox="0 0 64 64" fill="none" xmlns="http://www.w3.org/2000/svg">
<path d="M10.6667 10.6667H26.6667V26.6667H10.6667V10.6667ZM53.3333 10.6667V26.6667H37.3333V10.6667H53.3333ZM37.3333 40H42.6667V34.6667H37.3333V29.3333H42.6667V34.6667H48V29.3333H53.3333V34.6667H48V40H53.3333V48H48V53.3333H42.6667V48H34.6667V53.3333H29.3333V42.6667H37.3333V40ZM42.6667 40V48H48V40H42.6667ZM10.6667 53.3333V37.3333H26.6667V53.3333H10.6667ZM16 16V21.3333H21.3333V16H16ZM42.6667 16V21.3333H48V16H42.6667ZM16 42.6667V48H21.3333V42.6667H16ZM10.6667 29.3333H16V34.6667H10.6667V29.3333ZM24 29.3333H34.6667V40H29.3333V34.6667H24V29.3333ZM29.3333 16H34.6667V26.6667H29.3333V16ZM5.33333 5.33333V16H0V5.33333C0 3.91885 0.561903 2.56229 1.5621 1.5621C2.56229 0.561903 3.91885 0 5.33333 0L16 0V5.33333H5.33333ZM58.6667 0C60.0812 0 61.4377 0.561903 62.4379 1.5621C63.4381 2.56229 64 3.91885 64 5.33333V16H58.6667V5.33333H48V0H58.6667ZM5.33333 48V58.6667H16V64H5.33333C3.91885 64 2.56229 63.4381 1.5621 62.4379C0.561903 61.4377 0 60.0812 0 58.6667V48H5.33333ZM58.6667 58.6667V48H64V58.6667C64 60.0812 63.4381 61.4377 62.4379 62.4379C61.4377 63.4381 60.0812 64 58.6667 64H48V58.6667H58.6667Z" fill="#E5E7EB"/>
</svg>
