<svg width="30" height="30" viewBox="0 0 30 30" fill="none" xmlns="http://www.w3.org/2000/svg">
<path d="M23.75 19.4875L21.9875 21.25L17.5 16.7625L13.0125 21.25L11.25 19.4875L15.7375 15L11.25 10.5125L13.0125 8.75L17.5 13.2375L21.9875 8.75L23.75 10.5125L19.2625 15L23.75 19.4875ZM27.5 3.75C28.163 3.75 28.7989 4.01339 29.2678 4.48223C29.7366 4.95107 30 5.58696 30 6.25V23.75C30 24.413 29.7366 25.0489 29.2678 25.5178C28.7989 25.9866 28.163 26.25 27.5 26.25H8.75C7.8875 26.25 7.2125 25.8 6.7625 25.1375L0 15L6.7625 4.85C7.2125 4.1875 7.8875 3.75 8.75 3.75H27.5ZM27.5 6.25H8.75L2.85 15L8.75 23.75H27.5V6.25Z" fill="#FF70A5"/>
</svg>
